# xmcd
#
# Track frame offsets: 
#        150
#        15001
#        36122
#        58993
#        76506
#        91013
#        106982
#        127858
#        156133
#        174971
#
# Disc length: 2633 seconds
#
# Revision: 0
# Processed by: cddbd v1.5.2PL0 Copyright (c) Steve Scherf et al.
# Submitted via: ExactAudioCopy v0.99pb3
#
DISCID=5e0a470a
DTITLE=Various Artist - Is This Music? #13
DYEAR=2004
DGENRE=Is This Music
TTITLE0=Bozilla - The Box That Got Away
TTITLE1=Trashcan Sinatras - All The Dark Horses
TTITLE2=The Sky At Night - My Reasons
TTITLE3=Motormark - That's What You Say When You Want Me To Kill You
TTITLE4=Ostle Bay - Out Of Those Eyes
TTITLE5=The Delgados - Come Undone
TTITLE6=Pro Forma - Sexual Design
TTITLE7=Daniel Patrick Quinn - Nine Standards Rigg
TTITLE8=Aereogramme - Dreams And Bridges
TTITLE9=Errors - HEBS
EXTD=
EXTT0=
EXTT1=
EXTT2=
EXTT3=
EXTT4=
EXTT5=
EXTT6=
EXTT7=
EXTT8=
EXTT9=
PLAYORDER=
